<?xml version="1.0" encoding="UTF-8"?>
<svg id="Ebene_1" xmlns="http://www.w3.org/2000/svg" version="1.1" viewBox="0 0 110 110">
  <!-- Generator: Adobe Illustrator 29.2.1, SVG Export Plug-In . SVG Version: 2.1.0 Build 116)  -->
  <defs>
    <style>
      .st0 {
        fill: #ffce00;
      }

      .st1 {
        fill: #160f42;
      }

      .st2 {
        fill: #fff;
      }
    </style>
  </defs>
  <g>
    <path d="M57.6,12c.6.4,1.3.7,2.2.8.8,0,1.6,0,2.3-.3s1.3-.8,1.8-1.4c.5-.7.8-1.5.9-2.5s0-1.9-.3-2.6-.8-1.3-1.4-1.8-1.3-.7-2.2-.8c-.8,0-1.6,0-2.3.3-.7.3-1.3.8-1.8,1.4-.5.7-.8,1.5-.9,2.5,0,1,0,1.9.3,2.6s.8,1.3,1.4,1.8ZM58.2,7.8c0-.6.2-1.1.4-1.5s.5-.7.8-.9.7-.2,1.2-.2.8.2,1.1.4c.3.2.5.6.6,1s.2.9,0,1.5c0,.6-.2,1.1-.4,1.5s-.5.7-.8.9-.7.2-1.2.2-.8-.2-1.1-.4-.5-.6-.6-1-.2-.9,0-1.5Z"/>
    <polygon points="66.7 14 67.8 10.5 71.3 11.5 71.8 9.8 68.3 8.7 68.9 6.9 72.8 8.1 73.3 6.3 67.3 4.5 64.6 13.4 66.7 14"/>
    <polygon points="72.9 16.3 74.5 13 77.8 14.6 78.6 12.9 75.3 11.3 76.1 9.6 79.8 11.4 80.6 9.8 74.9 7 70.9 15.3 72.9 16.3"/>
    <polygon points="82.1 21.9 83.1 20.5 79.7 18 80.8 16.5 83.9 18.7 85 17.2 81.8 15 82.9 13.4 86.3 15.8 87.4 14.4 82.1 10.6 76.8 18.2 82.1 21.9"/>
    <polygon points="84.1 23.8 87.9 20.1 87.9 20.1 86.7 26.5 88.1 27.8 94.6 21.3 93.1 19.7 89.3 23.5 89.2 23.4 90.5 17.1 89.1 15.7 82.5 22.2 84.1 23.8"/>
    <polygon points="90.8 31.9 94 29.9 95.9 33.1 97.5 32.1 95.5 29 97.1 28 99.3 31.4 100.8 30.5 97.5 25.1 89.6 30 90.8 31.9"/>
    <path d="M104.5,36v.8c0,.3.3.4.5.6h.8c.3,0,.4-.3.5-.5s0-.5,0-.8-.3-.5-.5-.6h-.8c-.3,0-.4.3-.5.5Z"/>
    <path d="M104,34.7h.8c.3,0,.4-.3.5-.5s0-.5,0-.8-.3-.5-.5-.6h-.8c-.3,0-.4.3-.5.5s0,.5,0,.8.3.4.5.6Z"/>
    <path d="M94.7,35.5c-.4.5-.6,1.1-.6,1.7s0,1.3.4,2.1c.3.7.7,1.3,1.1,1.7s1,.7,1.6.8,1.2,0,1.9-.2l5.5-2.2-.8-2.1-5.4,2.1c-.3,0-.6.2-.9,0-.3,0-.5,0-.8-.3-.2-.2-.4-.4-.5-.7s-.2-.6,0-.9c0-.3,0-.5.3-.8.2-.2.4-.4.7-.5l5.4-2.1-.8-2.1-5.5,2.2c-.6.3-1.1.6-1.5,1.1h0v.2Z"/>
    <path d="M97.1,48.3l.5,2.4,3.1-2.6c.3.5.7.8,1.2,1s1.1.2,1.7,0c.6,0,1.1-.4,1.5-.7.4-.4.7-.8.8-1.4,0-.5.2-1.2,0-1.8l-.7-3.8-9.1,1.8.4,2.2,3.1-.6.2,1.1-2.8,2.3h.1ZM103.9,44.1l.2,1.1v.9c0,.3-.2.4-.3.6-.2.2-.4.3-.7.3h-.7c-.2,0-.4-.2-.5-.4s-.2-.5-.3-.8l-.2-1.1,2.5-.5h0Z"/>
    <path d="M97.8,52.4v2.4l1.8.7-.2,3.2-2,.5v2.4l9.3-2.7v-3l-9-3.6h0ZM104.5,57.4l-3.3.9v-2.1l3.3,1.2h0Z"/>
    <polygon points="96.7 63.9 101.9 65.2 101.9 65.3 95.8 67.5 95.3 69.4 104.3 71.7 104.8 69.5 99.7 68.2 99.7 68.1 105.8 65.9 106.2 64 97.3 61.7 96.7 63.9"/>
    <polygon points="94.1 71.9 97.5 73.4 96 76.8 97.7 77.5 99.2 74.2 100.9 75 99.2 78.7 100.9 79.4 103.5 73.7 95.1 69.8 94.1 71.9"/>
    <path d="M91.1,77.7l2.6,1.8-.6,1-3.6-.4-1.4,2h0l-1.4,1.4.9,1.8-2.3,2.3-1.8-.9-1.7,1.7,8.8,4.3,2.1-2.1-4.2-8.4,3.6.3c0,.6,0,1.1.2,1.6s.6.9,1.1,1.3,1.1.5,1.6.6,1,0,1.5-.4.9-.7,1.3-1.3l2.1-3.2-7.7-5.2-1.2,1.9h0ZM90.1,90l-3.1-1.6,1.5-1.5,1.6,3h0ZM96.7,82.8c-.2.3-.4.5-.6.6s-.4.2-.6.2-.5,0-.7-.3c-.2-.2-.4-.3-.5-.5v-.7c0-.2.2-.5.4-.8l.6-.9,2.1,1.4-.6.9h-.1Z"/>
    <path d="M84.5,92.2c-.5-.8-1.2-1.4-1.9-1.8-.7-.4-1.4-.6-2.2-.5-.8,0-1.5.3-2.3.8-.7.4-1.2,1-1.5,1.6s-.5,1.2-.5,1.9.3,1.4.7,2.1l.7,1,3.3-2.2-.9-1.4-1.5,1c-.2-.3-.3-.5-.3-.8s0-.6.2-.8c.2-.3.4-.5.8-.7.4-.3.8-.4,1.2-.4s.8,0,1.2.4c.4.3.7.6,1,1.1s.5,1,.6,1.4v1.2c-.2.4-.4.7-.8.9-.2,0-.4.2-.6.3s-.4,0-.5,0h-.5c-.2,0-.3-.2-.5-.3l-1.9,1.2c.3.4.6.6,1,.8s.8.3,1.3.4h1.4c.5,0,.9-.3,1.4-.6.5-.3.9-.7,1.3-1.2.3-.5.6-1,.7-1.6s0-1.2,0-1.8-.4-1.2-.8-1.9h0Z"/>
    <polygon points="68.4 95.6 69.1 97.3 73 95.6 73.7 97.4 70.1 98.9 70.8 100.6 74.4 99.1 75.1 100.8 71.3 102.5 72 104.1 77.9 101.7 74.4 93.1 68.4 95.6"/>
    <polygon points="65.7 96.3 66.9 101.5 66.8 101.5 62.1 97.1 60.2 97.5 62.2 106.5 64.4 106.1 63.2 100.8 63.3 100.8 68 105.3 69.9 104.9 67.9 95.8 65.7 96.3"/>
    <path d="M58.4,97.3c-.2,0-.4,0-.6.2-.2,0-.3.3-.4.5v.6c0,.3.2.6.4.8.3.2.5.3.8.3s.6-.2.8-.4c.2-.2.3-.5.3-.8s-.2-.6-.4-.8-.5-.3-.9-.3h0,0Z"/>
    <path d="M52.3,98c-.6-.4-1.3-.7-2.2-.8-.8,0-1.6,0-2.3.3s-1.3.8-1.8,1.4c-.5.7-.8,1.5-.9,2.5,0,1,0,1.9.3,2.6s.8,1.3,1.4,1.8c.6.4,1.3.7,2.2.8.8,0,1.6,0,2.3-.3s1.3-.8,1.8-1.4.8-1.5.9-2.5c0-1,0-1.9-.3-2.6s-.8-1.3-1.4-1.8ZM51.7,102.2c0,.6-.2,1.1-.4,1.5s-.5.7-.8.9c-.3.2-.7.2-1.2.2s-.8-.2-1.1-.4-.5-.6-.6-1,0-.9,0-1.5.2-1.1.4-1.5.5-.7.8-.9c.3-.2.7-.2,1.2-.2s.8.2,1.1.4.5.6.6,1,0,.9,0,1.5Z"/>
    <polygon points="43.2 96 42.1 99.5 38.6 98.4 38 100.2 41.6 101.3 41 103.1 37.1 101.9 36.6 103.6 42.6 105.5 45.3 96.6 43.2 96"/>
    <polygon points="37 93.7 35.4 97 32.1 95.4 31.3 97 34.6 98.6 33.8 100.3 30.1 98.5 29.3 100.2 35 103 39 94.6 37 93.7"/>
    <polygon points="27.8 88 26.8 89.5 30.2 91.9 29.2 93.5 26 91.2 24.9 92.7 28.1 95 27 96.5 23.6 94.1 22.5 95.6 27.8 99.3 33.1 91.7 27.8 88"/>
    <polygon points="25.8 86.1 22 89.9 22 89.8 23.2 83.4 21.9 82.1 15.3 88.6 16.8 90.2 20.6 86.4 20.7 86.5 19.5 92.8 20.8 94.2 27.4 87.7 25.8 86.1"/>
    <polygon points="19.1 78 16 80 14 76.9 12.5 77.8 14.4 80.9 12.8 81.9 10.7 78.5 9.1 79.4 12.4 84.8 20.3 79.9 19.1 78"/>
    <path d="M15.3,74.5c.4-.5.6-1.1.6-1.7s0-1.3-.4-2.1c-.3-.7-.7-1.3-1.1-1.8s-1-.7-1.6-.8c-.6,0-1.2,0-1.9.2l-5.6,2.2.8,2.1,5.4-2.1c.3,0,.6-.2.9,0,.3,0,.5.2.8.3s.4.4.5.7c.1.3.2.6.1.9,0,.3-.1.5-.3.8s-.4.4-.7.5l-5.4,2.1.8,2.1,5.6-2.2c.6-.3,1.1-.6,1.5-1.1h0Z"/>
    <path d="M5.9,75.2h-.8c-.3,0-.4.3-.5.5v.8c0,.3.3.5.5.6h.8c.3,0,.4-.3.5-.5v-.8c0-.3-.3-.4-.5-.6Z"/>
    <path d="M5.4,73.9v-.8c0-.3-.3-.4-.5-.6h-.8c-.3,0-.4.3-.5.5v.8c0,.3.3.5.5.6h.8c.3,0,.4-.3.5-.5Z"/>
    <path d="M12.9,61.6l-.5-2.4-3.1,2.6c-.3-.5-.7-.8-1.2-1s-1.1-.2-1.7,0c-.6,0-1.1.4-1.5.7-.4.4-.7.8-.8,1.4,0,.5-.2,1.2,0,1.8l.7,3.8,9.1-1.8-.4-2.2-3.1.6-.2-1.1,2.8-2.3h-.1ZM6.1,65.8l-.2-1.1v-.9c0-.3.2-.4.3-.6.2-.2.4-.3.7-.3h.7c.2,0,.4.2.5.4s.2.5.3.8l.2,1.1-2.5.5h0Z"/>
    <path d="M12.3,55.1l-1.9-.7.2-3.2,2-.5v-2.4c.1,0-9.3,2.7-9.3,2.7v3l9,3.6v-2.4h0ZM5.5,52.5l3.3-.9v2.1c-.1,0-3.3-1.2-3.3-1.2h0Z"/>
    <polygon points="13.3 46 8.1 44.7 8.1 44.6 14.2 42.4 14.7 40.6 5.7 38.3 5.2 40.4 10.3 41.8 10.3 41.8 4.2 44 3.8 45.9 12.7 48.2 13.3 46"/>
    <polygon points="15.9 38.1 12.5 36.5 14 33.2 12.4 32.4 10.8 35.8 9.1 35 10.8 31.3 9.1 30.5 6.5 36.3 15 40.1 15.9 38.1"/>
    <path d="M19,32.2l-2.6-1.8.6-1,3.6.4,1.4-2h0l1.4-1.4-.9-1.8,2.3-2.3,1.8.9,1.7-1.7-8.8-4.3-2.1,2.1,4.2,8.4-3.5-.3c0-.6,0-1.1-.2-1.6s-.6-.9-1.1-1.3-1.1-.5-1.6-.6c-.5,0-1,0-1.5.4s-.9.7-1.3,1.3l-2.1,3.2,7.7,5.2,1.3-1.9h-.3,0ZM20,19.9l3.1,1.6-1.5,1.5-1.6-3h0ZM13.4,27.1c.2-.3.4-.5.6-.6s.4-.2.6-.2.5,0,.7.3c.2.2.4.3.5.5,0,.2.1.4,0,.7,0,.2-.2.5-.4.8l-.6.9-2.1-1.4.6-.9h0Z"/>
    <path d="M25.6,17.8c.5.8,1.2,1.4,1.9,1.8.7.4,1.4.6,2.2.5.8,0,1.5-.3,2.3-.8.7-.4,1.2-1,1.5-1.6s.5-1.2.5-1.9-.3-1.4-.7-2.1l-.7-1-3.3,2.2.9,1.4,1.5-1c.2.3.3.5.3.8s0,.6-.2.8c-.2.3-.4.5-.8.7-.4.3-.8.4-1.2.4s-.8-.1-1.1-.4c-.4-.3-.7-.6-1-1.1s-.5-1-.6-1.4c0-.4,0-.8.1-1.2.2-.4.4-.7.8-.9l.6-.3c.2-.1.4,0,.5,0,.2,0,.3,0,.5.1.2,0,.3.2.5.3l1.9-1.2c-.3-.4-.6-.6-1-.8s-.8-.3-1.3-.4c-.5,0-.9,0-1.4.1s-.9.3-1.4.6-.9.7-1.3,1.2c-.3.5-.6,1-.7,1.6s-.1,1.2,0,1.8c.1.6.4,1.2.8,1.9h0Z"/>
    <polygon points="41.7 14.4 41 12.7 37.1 14.3 36.3 12.6 39.9 11.1 39.2 9.4 35.6 10.9 34.9 9.1 38.8 7.5 38.1 5.8 32.1 8.3 35.7 16.9 41.7 14.4"/>
    <polygon points="44.3 13.7 43.2 8.5 43.3 8.5 48 12.9 49.8 12.5 47.9 3.5 45.7 3.9 46.8 9.1 46.8 9.2 42.1 4.7 40.2 5.1 42.1 14.2 44.3 13.7"/>
    <path d="M51.7,12.6c.2,0,.4,0,.6-.2s.3-.3.4-.5v-.6c0-.3-.2-.6-.4-.8-.3-.2-.5-.3-.8-.3s-.6.2-.8.4-.3.5-.3.8.2.6.4.8.5.3.9.3h0,0Z"/>
    <polygon points="73.2 34.1 36.8 34.1 36.8 41 50.9 41 50.9 79.6 59.1 79.6 59.1 41 73.2 41 73.2 34.1"/>
  </g>
  <g>
    <path d="M-61,8.5c0,1-.4,1.8-.9,2.5s-1.1,1.1-1.8,1.4c-.7.3-1.5.4-2.3.3-.8,0-1.6-.4-2.2-.8s-1.1-1-1.4-1.8c-.3-.7-.4-1.6-.3-2.6,0-1,.4-1.9.9-2.5.5-.7,1.1-1.1,1.8-1.4s1.5-.4,2.3-.3c.8,0,1.5.4,2.2.8.7.4,1.1,1,1.4,1.8s.4,1.6.3,2.6ZM-63.3,8.3v-1.5c0-.4-.3-.8-.6-1s-.7-.4-1.1-.4-.8,0-1.2.2-.6.5-.8.9c-.2.4-.4.9-.4,1.5v1.5c0,.4.3.8.6,1,.3.2.7.4,1.1.4s.8,0,1.2-.2c.3-.2.6-.5.8-.9s.4-.9.4-1.5Z"/>
    <path d="M-61.2,13.4l2.7-8.9,6,1.8-.5,1.7-3.9-1.2-.6,1.8,3.5,1.1-.5,1.7-3.5-1.1-1.1,3.6-2.1-.7s0,.2,0,.2Z"/>
    <path d="M-54.9,15.3l4-8.3,5.7,2.8-.8,1.6-3.7-1.8-.8,1.7,3.3,1.6-.8,1.6-3.3-1.6-1.6,3.3-2-1h0Z"/>
    <path d="M-49,18.2l5.3-7.6,5.3,3.7-1,1.5-3.5-2.4-1.1,1.6,3.2,2.2-1,1.5-3.2-2.2-1.1,1.6,3.5,2.4-1,1.5-5.3-3.7h-.1Z"/>
    <path d="M-31.1,21.3l-6.6,6.5-1.3-1.4,1.2-6.4h0l-3.8,3.7-1.6-1.6,6.6-6.5,1.4,1.4-1.2,6.3h0l3.8-3.7,1.6,1.6h-.1Z"/>
    <path d="M-36.1,30l7.9-4.9,3.3,5.4-1.5,1-2.2-3.5-1.6,1,1.9,3.1-1.5,1-1.9-3.1-3.2,2-1.2-1.9h0Z"/>
    <path d="M-21.9,37.3l.8,2.1-5.5,2.2c-.6.3-1.3.3-1.9.2s-1.1-.4-1.6-.8-.9-1-1.1-1.7c-.3-.7-.4-1.4-.4-2.1s.2-1.2.6-1.7.9-.9,1.5-1.1l5.5-2.2.8,2.1-5.4,2.1c-.3,0-.5.3-.7.5s-.3.5-.3.8,0,.6.1.9c.1.3.3.6.5.7.2.2.5.3.8.3h.9l5.4-2.1h0v-.2ZM-22.3,34.1c-.1-.3-.1-.5,0-.8s.3-.4.5-.5h.8c.3,0,.4.3.5.6s.1.5,0,.8-.3.4-.5.5h-.8c-.3,0-.4-.3-.5-.6ZM-21.2,36.7c-.1-.3-.1-.5,0-.8s.3-.4.5-.5h.8c.3,0,.4.3.5.6s.1.5,0,.8-.3.4-.5.5h-.8c-.3,0-.4-.3-.5-.6Z"/>
    <path d="M-29.6,43.3l9.1-1.8.7,3.8c.1.7.1,1.3,0,1.8s-.4,1-.8,1.4-.9.6-1.5.7h-1.7c-.5,0-.9-.5-1.2-1-.3-.5-.6-1-.7-1.7l-.5-2.4,1.7-.3.4,2c0,.3.2.6.3.8s.3.3.5.4h.7c.3,0,.5-.2.7-.3.2-.2.3-.3.3-.6v-.9l-.2-1.1-7.3,1.4-.4-2.2h0ZM-24.5,47.6l-3.7,3.1-.5-2.4,3.7-3,.5,2.4h0Z"/>
    <path d="M-28.1,54.8v-2.4c.1,0,9.2,3.6,9.2,3.6v3c-.1,0-9.5,2.7-9.5,2.7v-2.4c.1,0,7.1-1.8,7.1-1.8h0l-6.8-2.6h0ZM-24.4,54.7l-.2,5h-1.7l.2-5.1h1.7Z"/>
    <path d="M-21.5,71.7l-9-2.3.5-1.8,6.1-2.3h0l-5.2-1.4.6-2.2,9,2.3-.5,1.9-6.1,2.2h0l5.2,1.4-.6,2.2h0Z"/>
    <path d="M-30.7,69.8l8.4,3.8-2.6,5.8-1.7-.8,1.7-3.7-1.7-.8-1.5,3.4-1.7-.8,1.5-3.4-3.4-1.5.9-2h.1Z"/>
    <path d="M-32.8,82.5l-4.8-.4,1.4-2,4.8.5-1.3,2h-.1ZM-33.4,75.8l7.7,5.2-2.1,3.2c-.4.6-.8,1-1.3,1.3s-1,.4-1.5.4-1.1-.2-1.6-.6-.9-.8-1.1-1.3c-.2-.5-.3-1-.2-1.6,0-.6.3-1.1.7-1.7l1.4-2,1.5,1-1.1,1.7c-.2.3-.3.5-.4.8v.7c0,.2.2.4.5.5.2.2.5.2.7.3.2,0,.4,0,.6-.2.2,0,.4-.3.6-.6l.6-.9-6.2-4.2,1.2-1.9h0Z"/>
    <path d="M-39,83.5l1.7-1.7,4.4,8.8-2.1,2.1-8.8-4.3,1.7-1.7,6.4,3.3h0l-3.4-6.5h0ZM-36.2,85.9l-3.6,3.6-1.2-1.2,3.6-3.6,1.2,1.2Z"/>
    <path d="M-45.6,96.9s.3.2.5.3h1s.4,0,.6-.3c.4-.2.6-.6.8-.9.2-.4.2-.8,0-1.2,0-.4-.3-.9-.6-1.4s-.7-.9-1-1.1c-.4-.3-.8-.4-1.2-.4s-.8,0-1.2.4c-.3.2-.6.5-.8.7-.2.3-.2.5-.2.8s0,.6.3.9l-.4.2,1.9-1.2.9,1.4-3.3,2.2-.7-1c-.5-.7-.7-1.4-.7-2.1s0-1.3.5-1.9c.3-.6.8-1.1,1.5-1.6s1.5-.8,2.3-.8,1.5,0,2.2.5,1.3,1,1.9,1.8c.4.6.7,1.3.8,1.9s0,1.2,0,1.8-.3,1.1-.7,1.6c-.3.5-.8.9-1.3,1.2-.4.3-.9.5-1.4.6s-.9.2-1.4,0c-.5,0-.9-.2-1.3-.4s-.7-.5-1-.8l1.9-1.2v-.2.2Z"/>
    <path d="M-51.4,93.1l3.6,8.6-6,2.5-.7-1.7,3.9-1.6-.7-1.8-3.6,1.5-.7-1.7,3.6-1.5-.7-1.8-3.9,1.6-.7-1.7,6-2.5h0Z"/>
    <path d="M-63.6,106.5l-2-9.1,1.9-.4,4.7,4.4h0l-1.1-5.2,2.2-.5,2,9.1-1.9.4-4.7-4.4h0l1.1,5.2-2.2.5Z"/>
    <path d="M-67.4,97.3c.3,0,.6,0,.9.3s.4.5.4.8,0,.6-.3.8c-.2.2-.5.4-.8.4s-.6,0-.8-.3c-.3-.2-.4-.5-.4-.8v-.6c0-.2.2-.3.4-.5.2,0,.4-.2.6-.2h0Z"/>
    <path d="M-80.6,101.4c0-1,.4-1.8.9-2.5s1.1-1.1,1.8-1.4c.7-.3,1.5-.4,2.3-.3.8,0,1.6.4,2.2.8s1.1,1,1.4,1.8c.3.7.4,1.6.3,2.6s-.4,1.8-.9,2.5-1.1,1.1-1.8,1.4-1.5.4-2.3.3c-.8,0-1.5-.4-2.2-.8-.6-.4-1.1-1-1.4-1.8-.3-.7-.4-1.6-.3-2.6ZM-78.3,101.7v1.5c0,.4.3.8.6,1s.7.4,1.1.4.8,0,1.2-.2c.3-.2.6-.5.8-.9.2-.4.4-.9.4-1.5v-1.5c0-.4-.3-.8-.6-1s-.7-.4-1.1-.4-.8,0-1.2.2c-.3.2-.6.5-.8.9-.2.4-.4.9-.4,1.5Z"/>
    <path d="M-80.4,96.6l-2.7,8.9-6-1.9.5-1.7,3.9,1.2.6-1.8-3.5-1.1.5-1.7,3.5,1.1,1.1-3.6,2.1.7h0Z"/>
    <path d="M-86.7,94.6l-4.1,8.3-5.7-2.8.8-1.6,3.7,1.8.8-1.7-3.3-1.6.8-1.6,3.3,1.6,1.6-3.3,2,1h0Z"/>
    <path d="M-92.6,91.7l-5.3,7.6-5.3-3.7,1-1.5,3.5,2.4,1.1-1.6-3.2-2.2,1-1.5,3.2,2.2,1.1-1.6-3.5-2.4,1-1.5,5.3,3.7h.1Z"/>
    <path d="M-110.5,88.6l6.6-6.5,1.3,1.4-1.2,6.4h0l3.8-3.7,1.6,1.6-6.6,6.5-1.4-1.4,1.2-6.3h0l-3.8,3.7-1.6-1.6h0Z"/>
    <path d="M-105.4,79.9l-7.9,4.9-3.3-5.4,1.5-1,2.1,3.5,1.6-1-1.9-3.1,1.6-1,1.9,3.1,3.2-2,1.2,1.9h0Z"/>
    <path d="M-120.3,73.2v.8c0,.3-.3.4-.5.5s-.5,0-.8,0-.4-.3-.5-.6v-.8c0-.3.3-.4.5-.5h.8c.3,0,.4.3.5.6ZM-119.3,75.8v.8c0,.3-.3.4-.5.5h-.8c-.3,0-.4-.3-.5-.6v-.8c0-.3.3-.4.5-.5h.8c.3,0,.4.3.5.6ZM-119.6,72.6l-.8-2.1,5.6-2.2c.6-.3,1.3-.3,1.9-.2.6,0,1.1.4,1.6.8s.9,1,1.1,1.8c.3.7.4,1.4.4,2.1s-.2,1.2-.6,1.7-.9.9-1.5,1.1l-5.6,2.2-.8-2.1,5.4-2.1c.3,0,.5-.3.7-.5s.3-.5.3-.8v-.9c0-.3-.3-.6-.5-.7s-.5-.3-.8-.3h-.9l-5.4,2.1h0Z"/>
    <path d="M-111.9,66.6l-9.1,1.8-.7-3.8v-1.8c0-.5.4-1,.8-1.4s.9-.6,1.5-.7h1.7c.5,0,.9.5,1.2,1,.3.5.6,1,.7,1.7l.5,2.4-1.7.3-.4-2c0-.3-.2-.6-.3-.8,0-.2-.3-.4-.5-.4h-.7c-.3,0-.5.2-.7.3-.2.2-.3.3-.3.6v.9l.2,1.1,7.3-1.4.4,2.2h0ZM-117.1,62.3l3.7-3.1.5,2.4-3.7,3-.5-2.4h0Z"/>
    <path d="M-113.4,55.1v2.4l-9.2-3.6v-3l9.6-2.7v2.4l-7.1,1.8h0l6.8,2.6h-.1ZM-117.1,55.2l.2-5h1.7l-.2,5.1h-1.7Z"/>
    <path d="M-120,38.3l9,2.3-.5,1.8-6.1,2.2h0l5.2,1.4-.6,2.2-9-2.3.5-1.9,6.1-2.2h0l-5.2-1.4.6-2.2h0Z"/>
    <path d="M-110.8,40.1l-8.4-3.8,2.6-5.8,1.7.8-1.7,3.7,1.7.8,1.5-3.4,1.7.8-1.5,3.4,3.4,1.5-.9,2h0Z"/>
    <path d="M-108,34.1l-7.7-5.2,2.1-3.2c.4-.6.8-1,1.3-1.3s1-.4,1.5-.4,1.1.2,1.6.6.9.8,1.1,1.3.3,1,.2,1.6-.3,1.1-.7,1.7l-1.4,2-1.5-1,1.1-1.7c.2-.3.3-.5.4-.8v-.7c0-.2-.2-.4-.5-.5-.2-.2-.5-.2-.7-.3-.2,0-.4,0-.6.2s-.4.3-.6.6l-.6.9,6.2,4.2-1.3,1.9h0ZM-108.6,27.4l4.8.5-1.4,2-4.8-.5,1.3-2h0Z"/>
    <path d="M-102.4,26.4l-1.7,1.7-4.3-8.8,2.1-2.1,8.8,4.3-1.7,1.7-6.4-3.4h0l3.4,6.5h-.2ZM-105.2,24.1l3.6-3.6,1.2,1.2-3.6,3.6-1.2-1.2Z"/>
    <path d="M-95.9,13.1c0-.1-.3-.2-.5-.3-.2,0-.3-.1-.5-.1h-.5s-.4.1-.6.3c-.4.2-.6.5-.8.9-.2.4-.2.8,0,1.2,0,.4.3.9.6,1.4.3.5.7.9,1,1.1.4.3.8.4,1.1.4s.8-.1,1.2-.4c.3-.2.6-.5.8-.7.2-.3.2-.5.2-.8s0-.6-.3-.9l.4-.2-1.9,1.2-.9-1.4,3.3-2.2.7,1c.5.7.7,1.4.7,2.1s0,1.3-.5,1.9c-.3.6-.8,1.1-1.5,1.6s-1.5.7-2.3.8c-.8,0-1.5-.1-2.2-.5s-1.3-1-1.9-1.8c-.4-.6-.7-1.3-.8-1.9v-1.8c0-.6.3-1.1.7-1.6.3-.5.8-.9,1.3-1.2.4-.3.9-.5,1.4-.6s.9-.2,1.4-.1c.5,0,.9.2,1.3.4s.7.5,1,.8l-1.9,1.2v.2h0Z"/>
    <path d="M-90,16.9l-3.5-8.6,6-2.5.7,1.7-3.9,1.6.7,1.8,3.6-1.5.7,1.7-3.6,1.5.7,1.8,3.9-1.6.7,1.7-6,2.5h0Z"/>
    <path d="M-77.8,3.5l1.9,9.1-1.9.4-4.7-4.5h0l1.1,5.2-2.2.5-1.9-9.1,1.9-.4,4.7,4.5h0l-1.1-5.2s2.2-.5,2.2-.5Z"/>
    <path d="M-74,12.6c-.3,0-.6,0-.9-.3-.2-.2-.4-.5-.4-.8s0-.6.3-.8.5-.4.8-.4.6,0,.8.3c.3.2.4.5.4.8v.6c0,.2-.2.3-.4.5s-.4.2-.6.2h0Z"/>
  </g>
  <path d="M-92.7,37.6v-8.4h44v8.4h-17v46.7h-9.9v-46.7s-17.1,0-17.1,0Z"/>
  <g>
    <path d="M-197.8,1.7c0,.9-.3,1.7-.7,2.4-.4.6-.9,1.1-1.6,1.4-.6.3-1.3.4-2.1.3-.8,0-1.4-.3-2-.7s-1-1-1.3-1.7-.4-1.5-.3-2.4c0-.9.3-1.7.7-2.4s.9-1.1,1.6-1.4c.6-.3,1.3-.4,2.1-.3.8,0,1.4.3,2,.7s1,1,1.3,1.7c.3.7.4,1.5.3,2.5h0ZM-199.4,1.6c0-.7,0-1.2-.2-1.7s-.4-.8-.8-1.1c-.3-.3-.7-.4-1.2-.5s-.9,0-1.3.2c-.4.2-.7.5-.9,1-.2.4-.4,1-.5,1.6,0,.7,0,1.2.2,1.7s.4.8.8,1.1c.3.3.7.4,1.2.5.5,0,.9,0,1.3-.2.4-.2.7-.5.9-1s.4-1,.5-1.6Z"/>
    <path d="M-197,6.4l1.5-7c0-.4.3-.8.5-1s.5-.4.9-.5h1.1c.3,0,.5.1.7.2.2,0,.3.2.4.2l-.6,1.1s-.1,0-.2-.1c0,0-.2,0-.3-.1h-.6c-.1.1-.2.3-.3.5l-1.5,6.9-1.5-.3h0ZM-192.8.7l-.3,1.2-3.8-.8.3-1.2s3.8.8,3.8.8Z"/>
    <path d="M-193.1,7.4l2.1-6.8c.1-.4.3-.7.6-1,.3-.2.6-.4.9-.4h1c.3,0,.5.2.7.3.2,0,.3.2.4.2l-.6,1.1s-.1,0-.2-.1c0,0-.2,0-.3-.1h-.6c-.1,0-.3.3-.3.5l-2.1,6.8-1.5-.5h0ZM-188.4,2l-.3,1.1-3.7-1.1.4-1.1,3.7,1.1h0Z"/>
    <path d="M-187.1,9.6c-.6-.3-1.1-.6-1.4-1-.3-.4-.5-.9-.5-1.5s0-1.2.3-1.8c.3-.6.6-1.1,1.1-1.5.4-.4.9-.6,1.5-.7s1.1,0,1.7.2c.4.2.7.4,1,.6.3.3.5.6.6.9.1.4.2.8.2,1.2s-.1.9-.4,1.5l-.2.4-4.9-2.1.4-1,3.6,1.5c.1-.3.2-.5.1-.8,0-.3-.1-.5-.3-.7s-.4-.4-.6-.5c-.3,0-.6-.2-.9,0-.3,0-.5.2-.7.3-.2.2-.4.4-.5.7l-.4.8c-.1.4-.2.7-.2,1s.1.6.3.8c.2.2.4.4.7.5.2,0,.4.1.6.2s.4,0,.5,0,.3-.2.5-.3l1.3.7c-.2.3-.5.6-.9.7-.3.2-.7.2-1.2.2s-.9-.1-1.3-.3h0Z"/>
    <path d="M-180.5,8.5l-2,3.3-1.3-.8,3.3-5.6,1.3.8-.6,1h0c.3-.2.7-.3,1.1-.3s.8,0,1.2.4c.4.2.7.5.9.9.2.3.3.7.2,1.1,0,.4-.2.8-.4,1.3l-2.1,3.6-1.3-.8,2-3.4c.2-.4.3-.7.2-1.1,0-.3-.3-.6-.6-.8-.2,0-.5-.2-.7-.2s-.5,0-.7.2c-.2.1-.4.3-.6.6v-.2h.1Z"/>
    <path d="M-175.8,16.3l4.6-5.5c.3-.3.6-.6.9-.7.3-.1.7-.1,1,0,.3,0,.6.3.9.5.2.2.4.3.5.5s.2.3.3.4l-1,.7s0-.1-.2-.2-.1-.2-.2-.2c-.2-.2-.4-.3-.6-.2-.2,0-.3.1-.5.3l-4.5,5.4-1.2-1ZM-169.4,13.1l-.8.9-3-2.5.8-.9,3,2.5Z"/>
    <path d="M-168.2,19.6l2.7-2.6,1.1,1.1-4.7,4.6-1-1.1.8-.8h0c-.4,0-.7.1-1.2,0-.4,0-.8-.3-1.1-.6-.3-.3-.5-.6-.6-1v-1.1c0-.4.4-.8.8-1.1l3-2.9,1.1,1.1-2.8,2.7c-.3.3-.5.6-.5.9s.1.6.4.9c.2.2.4.3.6.4h.7c.3,0,.5-.2.7-.4h0ZM-166.6,14.4c-.2-.2-.2-.4-.2-.6s0-.4.2-.6c.2-.2.4-.2.6-.2s.4,0,.6.3c.2.2.2.4.2.6s0,.4-.2.6c-.2.2-.3.2-.6.2s-.4,0-.6-.3ZM-164.8,16.3c-.2-.2-.2-.4-.2-.6s0-.4.2-.6c.2-.2.4-.2.6-.2s.4,0,.6.3c.2.2.2.4.2.6s0,.4-.2.6-.3.2-.6.2-.4,0-.6-.3Z"/>
    <path d="M-168.5,23.4l5.2-4,.9,1.2-.9.7h0c.4,0,.7-.1,1.1,0,.3.1.6.3.9.6,0,0,.1.1.2.2s.1.2.1.2l-1.1.9s0-.2-.1-.3c0-.1-.1-.2-.2-.3-.2-.2-.4-.4-.6-.5s-.5-.1-.7-.1-.5.1-.7.3l-3,2.4-.9-1.2h-.2Z"/>
    <path d="M-164,29.8l-.8-1.5,9.2-1.4.9,1.7-6.3,6.8-.8-1.5,5-5.3h0l-7.2,1.1h0ZM-160.9,28.2l2.2,4.1-1.1.6-2.2-4.1s1.1-.6,1.1-.6Z"/>
    <path d="M-156.8,36l-3.6,1.3-.5-1.5,6.2-2.2.5,1.4-1,.4h0c.4,0,.8.2,1.1.5.3.2.6.6.7,1.1.2.4.2.8.1,1.2,0,.4-.2.7-.5,1s-.7.5-1.2.7l-3.9,1.4-.5-1.5,3.7-1.3c.4,0,.7-.4.9-.7s.2-.6,0-1c0-.3-.2-.5-.4-.6s-.4-.3-.6-.3h-1Z"/>
    <path d="M-158.7,42.6l7-1.6h1.1c.3,0,.6.3.8.6s.4.6.4,1,0,.5.1.7v.5h-1.2v-.6c0-.3-.2-.5-.3-.5h-.6l-6.9,1.6-.4-1.5v-.2h0ZM-151.7,44l-1.2.3-.9-3.8,1.2-.3.9,3.8Z"/>
    <path d="M-157.9,46.1l6.5-1,.2,1.5-1.1.2h0c.4,0,.7.3,1,.5s.4.6.5.9v.6l-1.4.2v-.7c0-.3-.1-.5-.3-.7s-.3-.4-.6-.4h-.8l-3.8.6-.2-1.5v-.2h0Z"/>
    <path d="M-157.4,52.1c0-.4,0-.8.2-1.1.1-.3.3-.6.6-.8s.6-.3,1.1-.3.7,0,.9.2.4.3.6.5.3.5.4.8.2.6.2.9.1.7.1.9.1.4.2.5.2.2.3.2h0c.3,0,.6,0,.7-.3.2-.2.2-.5.2-.8s-.1-.7-.3-.9-.4-.4-.6-.4v-1.4c.5,0,.9.3,1.2.5s.5.6.6.9c.2.4.2.8.3,1.2v.9c0,.3-.2.6-.3.9-.2.3-.4.5-.7.7s-.6.3-1.1.3l-4.4.2v-1.5h.8c-.2,0-.4-.3-.5-.4-.2-.2-.3-.4-.4-.6s-.2-.5-.2-.9v-.2h0ZM-156.2,52.5c0,.3,0,.6.2.8.1.2.3.4.5.5s.4.2.7.2h.8s0-.2-.1-.3c0,0,0-.2-.1-.4v-.8c0-.2-.1-.4-.2-.6,0-.2-.2-.3-.3-.4s-.3,0-.5,0c-.3,0-.5,0-.6.3s-.2.5-.2.8h-.2,0Z"/>
    <path d="M-159.9,59.1c0-.6.2-1,.3-1.4.2-.4.4-.7.7-.9s.6-.4.9-.4l.2,1.4c-.1,0-.3,0-.4.2-.1,0-.3.3-.4.5-.1.2-.2.4-.2.8s0,.8.2,1.1.5.5,1,.5h1.2c-.2,0-.3-.2-.5-.4s-.3-.4-.4-.6-.1-.6,0-.9c0-.5.2-.9.5-1.3.3-.4.7-.7,1.1-.9s1.1-.3,1.8-.2c.7,0,1.3.2,1.8.5s.8.6,1,1.1c.2.4.3.9.3,1.4s-.1.7-.3.9-.3.4-.5.6c-.2,0-.4.2-.5.3h0l1.1.2v1.5c-.1,0-6.8-.6-6.8-.6-.6,0-1-.2-1.3-.5s-.6-.7-.7-1.2c-.1-.5-.2-1-.1-1.6h0ZM-156,59.5c0,.3,0,.6.2.9s.4.4.6.6c.3,0,.6.2,1.1.3h1.1c.3,0,.6-.2.8-.5s.3-.5.3-.8,0-.6-.2-.9c-.2-.2-.4-.4-.7-.6s-.6-.2-1-.3h-1.1c-.3,0-.6.2-.7.5-.2.2-.3.5-.3.8h-.1Z"/>
    <path d="M-158.5,66.1c.1-.6.4-1.2.8-1.6.4-.4.8-.7,1.4-.8h1.8c.7,0,1.2.4,1.6.8s.7.8.9,1.3.2,1.1,0,1.7c0,.4-.2.8-.4,1.1-.2.3-.5.6-.8.8-.3.2-.7.3-1.1.4h-2l1.2-5.3,1,.2-.9,3.8h.8c.3,0,.5-.2.6-.4.2-.2.3-.4.4-.7v-.9c0-.3-.2-.5-.5-.7-.2-.2-.5-.3-.7-.4l-.9-.2h-1c-.3,0-.5.2-.7.4s-.3.5-.4.8v.6c0,.2,0,.4.2.5,0,.2.2.3.4.4l-.5,1.4c-.4-.2-.6-.4-.9-.7-.2-.3-.4-.7-.4-1.1v-1.4h0Z"/>
    <path d="M-156.2,72.4l-3.6-1.3.5-1.4,6.1,2.3-.5,1.4-1-.4h0c.3.3.5.7.6,1.1,0,.4,0,.8-.1,1.3-.2.4-.4.8-.7,1s-.7.4-1.1.4-.9,0-1.3-.2l-3.9-1.5.5-1.4,3.7,1.4c.4.2.8.2,1.1,0,.3,0,.5-.4.7-.7,0-.3.1-.5,0-.7,0-.2-.1-.4-.3-.6s-.4-.3-.7-.4v-.3Z"/>
    <path d="M-162.2,76.7c.1-.2.3-.4.5-.5h.7c.2,0,.4.3.5.5v.7c-.1.2-.3.4-.5.5s-.5,0-.7,0-.3-.2-.4-.3c0,0-.1-.3-.2-.5s0-.3,0-.5h0Z"/>
    <path d="M-165.2,89.6c-.8-.5-1.3-1.2-1.7-1.8-.3-.7-.5-1.4-.4-2.1,0-.7.3-1.4.8-2s1-1.1,1.6-1.4,1.3-.4,2.1-.3c.7,0,1.5.4,2.3,1,.8.5,1.3,1.2,1.7,1.8.3.7.5,1.4.4,2.1,0,.7-.3,1.4-.8,2s-1,1.1-1.6,1.4-1.3.4-2.1.3-1.5-.4-2.3-1ZM-164.3,88.3c.5.4,1.1.6,1.5.7h1.3c.4,0,.7-.4,1-.8s.4-.8.4-1.2,0-.9-.3-1.3c-.2-.4-.6-.8-1.2-1.2s-1.1-.6-1.5-.7h-1.3c-.4,0-.7.4-1,.8s-.4.8-.4,1.2,0,.9.3,1.3.6.8,1.2,1.2Z"/>
    <path d="M-169.6,87.9l5.2,4.9c.3.3.5.6.6.9v1c-.1.3-.3.6-.5.9-.2.2-.4.4-.5.5-.2,0-.3.2-.4.3l-.7-1h.2c0,0,.2,0,.2-.2.2-.2.3-.4.3-.6s-.1-.4-.3-.5l-5.2-4.8,1.1-1.1v-.2h0ZM-166.8,94.5l-.9-.8,2.6-2.8.9.8-2.6,2.8Z"/>
    <path d="M-172.4,90.8l4.8,5.3c.3.3.5.7.5,1s0,.7-.1,1-.3.6-.6.9-.4.3-.6.4c-.2,0-.3.2-.4.2l-.6-1.1h.2c0,0,.2,0,.3-.2.2-.2.3-.4.3-.6s0-.4-.3-.6l-4.8-5.2,1.1-1h.2ZM-170.1,97.5l-.8-.9,2.8-2.6.8.9-2.8,2.6Z"/>
    <path d="M-177.4,94.8c.5-.4,1.1-.6,1.6-.7.5,0,1.1,0,1.6.3s1,.7,1.4,1.2.6,1.1.7,1.7c0,.6,0,1.1-.2,1.6s-.6.9-1.1,1.3c-.3.2-.7.4-1,.5h-1.1c-.4,0-.8-.2-1.1-.4-.4-.2-.7-.6-1.1-1.1l-.3-.4,4.3-3.2.6.8-3.1,2.3c.2.2.4.4.6.5s.5.2.7,0,.5,0,.7-.3c.3-.2.4-.4.5-.7.1-.3.1-.5,0-.8s-.1-.5-.3-.8l-.5-.7c-.2-.3-.5-.5-.8-.7s-.6-.2-.8-.2-.6.2-.8.3c-.2,0-.3.3-.4.4-.1.2-.2.3-.2.5v.6l-1.3.7c-.2-.4-.2-.7-.2-1.1s.2-.7.4-1.1.5-.7,1-1l.2.4h0Z"/>
    <path d="M-179.7,101.1l-1.9-3.4,1.4-.7,3.2,5.7-1.3.7-.5-1h0c0,.4,0,.8-.2,1.2-.2.3-.5.6-.9.9-.4.2-.8.3-1.2.3s-.8,0-1.1-.4c-.3-.2-.6-.6-.9-1l-2-3.6,1.4-.7,1.9,3.4c.2.4.5.6.8.7s.6,0,1,0,.4-.3.5-.5.2-.4.2-.7,0-.5-.2-.8h-.2Z"/>
    <path d="M-188.9,101.2l2.4,6.7c.1.4.2.8.1,1.1,0,.3-.2.6-.5.9s-.5.4-.9.6c-.3,0-.5.2-.7.2h-.5v-1.2h.4c.3,0,.4-.2.5-.4v-.6l-2.4-6.6,1.5-.5v-.2h0ZM-189.4,108.4l-.4-1.1,3.6-1.3.4,1.1-3.6,1.3Z"/>
    <path d="M-195.5,106.1l.9,3.7-1.5.4-1.5-6.4,1.5-.4.3,1.1h0c0-.4.2-.8.5-1.1.3-.3.6-.5,1.1-.6h1.2c.4,0,.7.3.9.6.3.3.5.7.6,1.2l1,4-1.5.4-.9-3.8c0-.4-.3-.7-.6-.9-.3-.2-.6-.2-1,0-.2,0-.4.2-.6.3-.2.2-.3.4-.4.6v.9h0ZM-194.4,110.7h.6c.2,0,.3.3.4.5,0,.2,0,.4-.1.6s-.3.3-.5.4h-.6c-.2,0-.3-.3-.4-.5v-.6c.1-.2.3-.3.5-.4h.1ZM-191.9,110.1h.6c.2,0,.3.3.4.5,0,.2,0,.4-.1.6s-.3.3-.5.4h-.6c-.2,0-.3-.3-.4-.5v-.6c.1-.2.3-.3.5-.4h.1Z"/>
    <path d="M-198.7,103.9l.8,6.5-1.5.2v-1.1h-.2c0,.4-.2.7-.5.9-.3.2-.6.4-1,.4h-.6l-.2-1.4h.7c.3,0,.5,0,.7-.3.2,0,.4-.3.5-.6s.1-.5,0-.8l-.5-3.8,1.5-.2s.3.2.3.2Z"/>
    <path d="M-206.5,104.6h1.7l-3.4,8.7h-1.9l-2.7-8.9h1.7l2,7.1h0l2.6-6.8h0ZM-206.7,108l-4.6-.2v-1.3l4.7.2v1.3h0Z"/>
    <path d="M-215.5,107.6l.7-3.8,1.5.3-1.2,6.4-1.4-.3.2-1.1h0c-.2.3-.5.6-.9.7s-.8.2-1.3,0c-.4,0-.8-.3-1.1-.5-.3-.3-.5-.6-.6-1s-.1-.8,0-1.4l.8-4.1,1.5.3-.7,3.9c0,.4,0,.8.1,1.1.2.3.5.5.8.5h.7c.2,0,.4-.2.6-.4.2-.2.3-.4.3-.8v.2h0Z"/>
    <path d="M-220.2,102.6l-2.1,6.8c-.1.4-.3.7-.6,1-.3.2-.6.4-.9.4h-1c-.3,0-.5-.2-.7-.3s-.3-.2-.4-.2l.6-1h1.1c.2,0,.3-.3.3-.5l2.1-6.7,1.5.5v-.2.2ZM-224.9,108l.4-1.1,3.7,1.1-.4,1.1-3.7-1.1Z"/>
    <path d="M-223.6,101.5l-2.4,6.1-1.4-.6.4-1h0c-.3.3-.6.5-.9.6h-1.5l.5-1.3s.1,0,.3.2c.1,0,.2,0,.4.2h.8c.3,0,.5,0,.7-.3.2,0,.3-.4.5-.6l1.4-3.6,1.4.6-.2-.2h0Z"/>
    <path d="M-229.1,99c.4.2.7.4.9.7.2.3.3.6.4,1,0,.3,0,.7-.3,1.1-.2.3-.4.6-.6.7-.2,0-.5.2-.8.2h-.9c-.3,0-.6-.2-.9-.3-.4,0-.6-.3-.9-.3h-.5c-.1,0-.2,0-.3.2h0c-.2.3-.2.6,0,.8,0,.2.3.5.6.6.3.2.6.2.9.2s.5,0,.7-.3l1.2.9c-.3.3-.6.5-1,.6s-.7,0-1.1,0-.8-.2-1.2-.4c-.3,0-.5-.3-.8-.5s-.4-.5-.6-.7c-.1-.3-.2-.6-.2-.9s0-.7.3-1.1l2.1-3.9,1.3.7-.4.8h0c.2,0,.4-.2.6-.2h.7c.3,0,.6,0,.9.3h0v-.2ZM-230,99.8c-.3,0-.5-.2-.8-.2s-.5,0-.7.2c-.2,0-.4.3-.5.5l-.4.7h1.4c.2,0,.4,0,.6.2h.5c.1,0,.3-.2.4-.4.1-.3.1-.5,0-.7s-.3-.4-.6-.6h.1v.3Z"/>
    <path d="M-233.8,93.3c.5.3.8.7,1,1,.2.4.4.7.4,1v1l-1.3-.5v-.5c0-.2,0-.4-.2-.5s-.3-.4-.6-.5c-.4-.3-.7-.4-1.1-.4s-.7.2-1,.6l-.7,1h0c.2,0,.3,0,.6-.2h.7c.3,0,.6.2.9.4.4.3.7.7.9,1.1s.3.9.2,1.4c0,.5-.3,1.1-.7,1.7s-.9,1-1.4,1.3-1,.4-1.4.4-.9-.2-1.3-.5c-.3-.2-.5-.5-.7-.7-.1-.2-.2-.5-.2-.7v-.6h0l-.6.8-1.2-.9,3.9-5.4c.3-.5.7-.8,1.1-.9.4,0,.9-.2,1.4,0,.5,0,1,.4,1.4.7h0ZM-236.1,96.4c-.3-.2-.5-.3-.8-.3s-.6,0-.8.3c-.3.2-.5.4-.8.8-.2.3-.4.7-.5,1v.9c0,.3.3.5.5.7.3.2.6.3.9.3s.6,0,.9-.3.5-.4.8-.8c.2-.3.4-.6.5-1s0-.6,0-.9-.3-.5-.5-.7h-.2,0Z"/>
    <path d="M-240.6,90.9c.5.5.8.9,1,1.5s.2,1.1,0,1.6-.5,1.1-.9,1.6c-.5.5-1,.8-1.5,1s-1.1.2-1.6,0-1-.4-1.5-.8c-.3-.3-.5-.6-.7-.9s-.3-.7-.3-1.1,0-.8.2-1.2c.2-.4.5-.8.8-1.2l.3-.3,3.9,3.7-.7.8-2.8-2.7c-.2.2-.3.5-.4.7v.8c0,.2.2.5.4.7s.5.4.8.4h.8c.3,0,.5-.2.7-.5l.6-.7c.3-.3.4-.6.5-.9v-.9c0-.3-.2-.5-.5-.8s-.3-.3-.5-.3h-1l-.9-1.1c.3-.2.7-.3,1.1-.4s.8,0,1.2.2.8.4,1.1.8h-.1Z"/>
    <path d="M-247.2,89.7l3-2.4,1,1.2-5.1,4.1-.9-1.1.9-.7h-1.1c-.4,0-.7-.4-1-.7-.3-.3-.5-.7-.5-1.1s0-.8.2-1.1c.2-.4.5-.7.9-1.1l3.2-2.6,1,1.2-3,2.5c-.3.3-.5.6-.6.9,0,.3,0,.7.3,1s.4.4.6.4h.7c.2,0,.5-.2.7-.4h-.3,0Z"/>
    <path d="M-247.8,82.3c.1.2.2.5.1.7,0,.3-.2.5-.4.6s-.4.2-.7,0c-.3,0-.5-.2-.6-.4-.1-.2-.2-.4-.1-.7,0-.3.2-.5.4-.6.1,0,.3,0,.5-.2s.3,0,.5,0,.3.2.4.3v.2h0Z"/>
    <path d="M-257.5,73.3c.9-.4,1.7-.6,2.4-.5s1.4.3,2,.7,1,1,1.3,1.7.4,1.4.3,2.1-.4,1.3-.8,1.9c-.5.6-1.1,1.1-2,1.5s-1.7.6-2.4.5c-.8,0-1.4-.3-2-.7-.6-.4-1-1-1.3-1.7s-.4-1.4-.4-2.1.4-1.3.8-1.9c.5-.6,1.1-1.1,2-1.5h.1ZM-256.8,74.7c-.6.3-1.1.6-1.4,1s-.5.8-.6,1.2c0,.4,0,.9.2,1.3s.5.8.8,1,.8.4,1.3.4,1.1,0,1.7-.4c.6-.3,1.1-.6,1.4-1,.3-.4.5-.8.6-1.2,0-.4,0-.9-.2-1.3s-.5-.8-.8-1-.8-.4-1.3-.4-1.1,0-1.7.4h0Z"/>
    <path d="M-253.8,70.3l-6.9,2.1h-1.1c-.3,0-.6-.3-.8-.5-.2-.3-.4-.6-.5-.9,0-.3-.1-.5-.1-.7v-.5h1.2v.5c0,.3.2.4.4.5h.6l6.8-2,.4,1.5ZM-260.9,69.4l1.1-.3,1.1,3.7-1.1.3-1.1-3.7Z"/>
    <path d="M-254.8,66.5l-7,1.5h-1.1c-.3,0-.6-.3-.8-.6-.2-.3-.3-.6-.4-1v-1.2h1.2v.6c0,.3.2.5.3.5h.6l6.9-1.5.3,1.5v.2h0ZM-261.8,65l1.2-.2.8,3.8-1.2.2-.8-3.8Z"/>
    <path d="M-255.8,60.1c0,.7,0,1.2-.2,1.7-.2.5-.6.9-1,1.2-.5.3-1.1.5-1.7.6-.7,0-1.3,0-1.8-.2s-1-.5-1.3-.9-.5-1-.6-1.6v-1.2c0-.4.3-.7.5-1s.6-.6,1-.8.9-.3,1.5-.4h.5l.6,5.3h-1l-.4-3.8c-.3,0-.5,0-.8.3-.2,0-.4.3-.5.6-.1.2-.1.5-.1.8s.1.6.3.8c.2.2.4.4.7.5h1.7c.4,0,.7-.2,1-.4s.4-.4.6-.6.2-.6.1-.9,0-.4-.2-.6c0-.2-.2-.3-.3-.4-.1,0-.3-.2-.5-.3v-1.4c.4,0,.7.2,1.1.4.3.2.6.5.8.9s.3.8.4,1.3h-.4Z"/>
    <path d="M-260,54.9h3.8v1.6l-6.5-.2v-1.5h1.1c-.4-.2-.6-.5-.9-.8-.2-.3-.3-.7-.3-1.2s.1-.8.3-1.2c.2-.3.5-.6.9-.8s.8-.3,1.3-.2h4.2v1.6h-3.9c-.4,0-.8,0-1,.2-.3.2-.4.5-.4.9s0,.5.2.7c.1.2.3.4.5.5s.5.2.8.2v.2h-.1Z"/>
    <path d="M-255.5,47l-7-1.3c-.4,0-.8-.2-1-.5s-.4-.5-.5-.8v-1.1c0-.3.1-.5.2-.7,0-.2.1-.3.2-.4l1.1.5v.2c-.1,0-.1.9-.1.9,0,0,.3.2.5.3l6.9,1.3-.3,1.5h0ZM-261.4,42.9l1.2.2-.7,3.8-1.2-.2.7-3.8Z"/>
    <path d="M-261.6,39.9c0,.2-.2.4-.4.5s-.4,0-.6,0-.4-.2-.5-.4-.1-.4,0-.6c0-.2.2-.4.4-.5h.6c.2,0,.4.2.5.4s.1.4,0,.6ZM-260.9,37.4c0,.2-.2.4-.4.5h-.6c-.2,0-.4-.2-.5-.4s-.1-.4,0-.6c0-.2.2-.4.4-.5h.6c.2,0,.4.2.5.4s.1.4,0,.6ZM-256.3,38.7l-3.6-1.1.4-1.5,6.3,1.9-.4,1.4-1.1-.3h0c.3.3.5.6.7,1,.1.4.1.8,0,1.3-.1.4-.3.7-.6,1s-.6.4-1,.5h-1.4l-4-1.2.4-1.5,3.8,1.1h1c.3,0,.5-.4.6-.8v-.7c0-.2-.2-.5-.3-.6-.2-.2-.4-.3-.7-.4h0Z"/>
    <path d="M-252.9,37.2l-6-2.6.6-1.4,1,.4h0c-.3-.3-.5-.6-.6-1s0-.7.1-1c0,0,0-.2.1-.3s0-.2.1-.2l1.3.6s-.1.1-.2.3l-.2.4c-.1.3-.2.5-.1.8s.1.5.3.7c.1.2.3.4.6.5l3.5,1.5-.6,1.4h.1Z"/>
    <path d="M-249.5,30.1l-.9,1.4-5.7-7.3,1.1-1.6,9,2.2-.9,1.4-7.1-1.8h0l4.6,5.8h-.1ZM-252.3,28.2l2.5-3.9,1.1.7-2.5,3.9-1.1-.7Z"/>
    <path d="M-247.6,20.8l2.9,2.5-1,1.2-4.9-4.3,1-1.1.8.7h0c-.2-.4-.2-.8-.2-1.2s.2-.8.6-1.1c.3-.3.6-.6,1-.7s.8-.1,1.1,0c.4.1.8.3,1.2.7l3.1,2.8-1,1.2-2.9-2.6c-.3-.3-.7-.4-1-.4s-.6.2-.9.5c-.2.2-.3.4-.3.7v.7c0,.2.3.5.5.7v-.3h0Z"/>
    <path d="M-240.9,19.2l-4.8-5.3c-.3-.3-.5-.7-.5-1s0-.7.1-1,.3-.6.6-.9c.2-.2.4-.3.6-.4.2-.1.3-.2.4-.2l.6,1.1s-.1,0-.2.1-.2.1-.3.2c-.2.2-.3.4-.3.6s0,.4.3.6l4.8,5.2-1.1,1h-.2ZM-243.1,12.4l.8.9-2.9,2.6-.8-.9,2.9-2.6Z"/>
    <path d="M-238.2,16.8l-4-5.2,1.2-.9.7.9h0c-.1-.4-.2-.8,0-1.1.1-.3.3-.6.6-.9,0,0,.1-.1.2-.2h.2c0-.1.9,1,.9,1,0,0-.2,0-.3.1-.1,0-.2.1-.3.2-.2.2-.4.4-.5.6-.1.2-.1.5-.1.7s.1.5.3.7l2.4,3-1.2.9v.2h0Z"/>
    <path d="M-233.2,13.4c-.4.2-.7.4-1.1.4s-.7,0-1-.2c-.3-.1-.6-.4-.8-.8-.2-.3-.3-.6-.3-.9s0-.5.2-.8c.1-.2.3-.5.5-.7s.4-.4.7-.6c.3-.2.6-.4.7-.6.2-.2.3-.3.4-.4s0-.2,0-.4h0c-.2-.3-.4-.5-.6-.5-.3,0-.5,0-.8.2s-.5.4-.6.7-.1.5,0,.7l-1.3.6c-.1-.4-.1-.8,0-1.1s.2-.7.5-1,.6-.6,1-.8c.3-.2.6-.3.9-.4s.6,0,.9,0,.6,0,.9.3c.3.2.5.4.8.8l2.3,3.7-1.3.8-.5-.8h0v.7c0,.2-.2.4-.3.7-.2.2-.4.4-.7.6h-.5v-.2ZM-233.5,12.2c.3-.2.5-.4.6-.6.1-.2.2-.5.2-.7s0-.5-.2-.7l-.4-.7s0,.1-.1.2c0,0-.2.2-.3.3-.1,0-.2.2-.3.3-.1,0-.2.2-.3.2-.2.1-.3.3-.4.5-.1.2-.2.3-.2.5s0,.3.1.5.4.4.6.4c.3,0,.5,0,.8-.2h-.1Z"/>
    <path d="M-225.9,12.2c-.5.2-1,.4-1.4.4s-.8,0-1.1-.2-.6-.3-.8-.6l1.1-.9c.1,0,.2.2.4.2h.6c.2,0,.5,0,.8-.2.4-.2.7-.4.9-.7s.2-.7,0-1.1l-.5-1.1h0c0,.2,0,.4-.1.6,0,.2-.2.4-.4.6-.2.2-.4.4-.8.5-.5.2-.9.3-1.4.2s-.9-.2-1.3-.6-.8-.8-1.1-1.5-.4-1.3-.4-1.8.2-1,.4-1.4c.3-.4.6-.7,1.1-.9.3-.2.7-.2.9-.2.3,0,.5,0,.7.2.2,0,.4.2.5.3h0l-.4-1,1.4-.6,2.7,6.1c.2.5.3,1,.2,1.4,0,.4-.3.8-.7,1.2-.3.4-.8.7-1.3.9v.2h0ZM-227.5,8.7c.3-.1.5-.3.7-.6.1-.2.2-.5.2-.8s-.1-.7-.3-1.1-.4-.7-.6-.9c-.2-.2-.5-.4-.8-.4h-.9c-.3,0-.5.3-.7.6s-.2.6-.2.9.1.7.3,1c.2.4.4.7.6.9.2.2.5.4.8.4s.6,0,.9,0Z"/>
    <path d="M-220.5,7.6c-.6.2-1.2.2-1.7,0-.5,0-1-.4-1.4-.8s-.7-.9-.9-1.6c-.2-.6-.2-1.2-.1-1.8.1-.6.3-1,.7-1.4s.8-.7,1.4-.9c.4-.1.8-.2,1.2-.1.4,0,.7.1,1.1.3s.6.4.9.8c.3.4.5.8.6,1.4v.5c.1,0-5,1.5-5,1.5l-.3-1,3.7-1.1c0-.3-.2-.5-.4-.7s-.4-.3-.7-.4h-.8c-.3,0-.5.2-.7.5-.2.2-.3.5-.4.7s0,.6,0,.8l.3.9c.1.4.3.7.5.9.2.2.5.4.7.4h.9c.2,0,.4-.2.6-.3s.3-.2.4-.4.1-.3.2-.5l1.4-.3c0,.4,0,.8-.2,1.1-.2.3-.4.6-.7.9s-.7.5-1.2.6h-.1Z"/>
    <path d="M-216.1,2.5l.6,3.8-1.5.2-1-6.5,1.5-.2.2,1.1h0c0-.4.3-.7.6-1s.7-.4,1.2-.5h1.2c.4,0,.7.4.9.7s.4.8.5,1.3l.6,4.1-1.5.2-.6-3.9c0-.4-.2-.8-.5-1s-.6-.3-1-.2-.5.1-.7.3c-.2.2-.3.3-.4.6s-.1.5,0,.8h-.1v.2Z"/>
    <path d="M-209.4,5.7c-.3,0-.5,0-.7-.2s-.3-.4-.3-.6c0-.3,0-.5.2-.7s.4-.3.6-.3.5,0,.7.2c.2.2.3.4.3.6s0,.3-.1.5c0,0-.2.3-.3.4-.1,0-.3,0-.5.2h.1Z"/>
  </g>
  <path d="M-228.6,37.6v-8.4h44v8.4h-17v46.7h-9.9v-46.7s-17.1,0-17.1,0Z"/>
  <circle class="st2" cx="-328.6" cy="53.3" r="49.5"/>
  <path d="M-350.6,35.2v-8.4h44v8.4h-17v46.7h-9.9v-46.7h-17.1Z"/>
  <circle class="st0" cx="-328.6" cy="348.8" r="103.3"/>
  <path class="st2" d="M-350.6,330.7v-8.4h44v8.4h-17v46.7h-9.9v-46.7h-17.1Z"/>
  <circle class="st1" cx="-328.6" cy="572.8" r="103.3"/>
  <path class="st2" d="M-350.6,554.7v-8.4h44v8.4h-17v46.7h-9.9v-46.7h-17.1Z"/>
</svg>