<?xml version="1.0" encoding="UTF-8"?>
<svg id="Ebene_1" xmlns="http://www.w3.org/2000/svg" version="1.1" viewBox="0 0 50 50">
  <!-- Generator: Adobe Illustrator 30.0.0, SVG Export Plug-In . SVG Version: 2.1.1 Build 123)  -->
  <defs>
    <style>
      .st0 {
        fill: #fff;
      }
    </style>
  </defs>
  <path class="st0" d="M25.00074,49.70669c-2.73235,0-5.33228-.4164-7.80126-1.24626-2.47045-.82986-4.7349-2.00108-6.79337-3.51219s-3.84325-3.29589-5.35436-5.35436-2.68233-4.32292-3.51219-6.79337c-.83133-2.46898-1.24626-5.07038-1.24626-7.80126s.41493-5.33081,1.24626-7.80126c.82986-2.46898,2.00108-4.73343,3.51219-6.79189,1.51111-2.05846,3.29589-3.84472,5.35436-5.35583,2.05846-1.50964,4.32292-2.68086,6.79337-3.51071,2.46898-.83133,5.06891-1.24626,7.80126-1.24626,2.72941,0,5.33081.41493,7.79979,1.24626,2.47045.82986,4.7349,2.00108,6.79336,3.51071,2.05846,1.51111,3.84325,3.29737,5.35436,5.35583s2.68233,4.32292,3.51219,6.79189c.83133,2.47045,1.24626,5.07038,1.24626,7.80126s-.41493,5.33229-1.24626,7.80126c-.82986,2.47045-2.00108,4.7349-3.51219,6.79336s-3.29589,3.84325-5.35436,5.35436c-2.05846,1.51111-4.32292,2.68233-6.79336,3.51219-2.46898.82986-5.07038,1.24626-7.79979,1.24626h0ZM25.00074,45.59713c2.27622,0,4.44505-.34724,6.50351-1.04027,2.05846-.69302,3.94624-1.67002,5.66335-2.92804,1.71563-1.25803,3.2032-2.7456,4.46123-4.4627,1.2595-1.71563,2.23503-3.60341,2.92804-5.66187.69302-2.05993,1.04027-4.22728,1.04027-6.50498,0-2.27622-.34724-4.44504-1.04027-6.5035-.69302-2.05846-1.66855-3.94624-2.92804-5.66335-1.25803-1.71563-2.7456-3.2032-4.46123-4.4627-1.7171-1.25803-3.60489-2.23356-5.66335-2.92658-2.05846-.69449-4.22728-1.04027-6.5035-1.04027-2.2777,0-4.44651.34578-6.50498,1.04027-2.05846.69302-3.94624,1.66855-5.66335,2.92658-1.71563,1.2595-3.2032,2.74707-4.46123,4.4627-1.2595,1.7171-2.23503,3.60488-2.92805,5.66335s-1.04027,4.22728-1.04027,6.5035c0,2.2777.34724,4.44504,1.04027,6.50498.69302,2.05846,1.66855,3.94624,2.92805,5.66187,1.25803,1.7171,2.7456,3.20467,4.46123,4.4627,1.7171,1.25803,3.60488,2.23503,5.66335,2.92804s4.22728,1.04027,6.50498,1.04027h0ZM14.76761,19.42387v-5.14946h20.46478v5.14946h-7.08198v18.39525h-6.3008v-18.39524s-7.08199,0-7.08199,0Z"/>
</svg>