<?xml version="1.0" encoding="UTF-8"?>
<svg id="Ebene_1" xmlns="http://www.w3.org/2000/svg" version="1.1" viewBox="0 0 500 500">
  <!-- Generator: Adobe Illustrator 30.0.0, SVG Export Plug-In . SVG Version: 2.1.1 Build 123)  -->
  <defs>
    <style>
      .st0 {
        opacity: 0;
      }
    </style>
  </defs>
  <path d="M250.00372,375c-13.82396,0-26.97794-2.10672-39.46937-6.30527-12.49888-4.19855-23.95557-10.12417-34.37007-17.76941-10.4145-7.64524-19.44436-16.6751-27.0896-27.0896-7.64524-10.4145-13.57085-21.87118-17.76941-34.37007-4.206-12.49144-6.30527-25.65286-6.30527-39.46937s2.09928-26.97049,6.30527-39.46937c4.19855-12.49144,10.12417-23.94813,17.76941-34.36262,7.64524-10.4145,16.6751-19.45181,27.0896-27.09704,10.4145-7.63779,21.87118-13.56341,34.37007-17.76196,12.49144-4.206,25.64542-6.30527,39.46937-6.30527,13.80907,0,26.97049,2.09928,39.46193,6.30527,12.49888,4.19855,23.95557,10.12417,34.37007,17.76196,10.4145,7.64524,19.44436,16.68255,27.0896,27.09704s13.57085,21.87118,17.76941,34.36262c4.206,12.49888,6.30527,25.65286,6.30527,39.46937s-2.09928,26.97794-6.30527,39.46937c-4.19855,12.49888-10.12417,23.95557-17.76941,34.37007s-16.6751,19.44436-27.0896,27.0896-21.87118,13.57085-34.37007,17.76941c-12.49144,4.19855-25.65286,6.30527-39.46193,6.30527ZM250.00372,354.20823c11.51624,0,22.48906-1.75684,32.90355-5.26308,10.4145-3.50624,19.96546-8.44922,28.65289-14.81404,8.67999-6.36483,16.20612-13.89096,22.57094-22.57839,6.37227-8.67999,11.3078-18.23095,14.81404-28.64545,3.50624-10.42194,5.26308-21.38731,5.26308-32.911,0-11.51624-1.75684-22.48906-5.26308-32.90355-3.50624-10.4145-8.44177-19.96546-14.81404-28.65289-6.36483-8.67999-13.89096-16.20612-22.57094-22.57839-8.68743-6.36483-18.23839-11.30036-28.65289-14.8066-10.4145-3.51368-21.38731-5.26308-32.90355-5.26308-11.52369,0-22.4965,1.7494-32.911,5.26308-10.4145,3.50624-19.96546,8.44177-28.65289,14.8066-8.67999,6.37227-16.20612,13.8984-22.57094,22.57839-6.37227,8.68743-11.3078,18.23839-14.81404,28.65289-3.50624,10.4145-5.26308,21.38731-5.26308,32.90355,0,11.52369,1.75684,22.48906,5.26308,32.911,3.50624,10.4145,8.44177,19.96546,14.81404,28.64545,6.36483,8.68743,13.89096,16.21356,22.57094,22.57839,8.68743,6.36483,18.23839,11.3078,28.65289,14.81404,10.4145,3.50624,21.38731,5.26308,32.911,5.26308ZM192.17685,217.87006v-29.09954h115.64631v29.09954h-40.02025v103.9514h-35.60581v-103.9514h-40.02025Z"/>
  <g class="st0">
    <path d="M242.78613,179.42383c2.04346,1.05859,4.32275,1.56738,6.83838,1.52686,2.49756-.04053,4.75244-.61865,6.76514-1.73389,2.0127-1.11572,3.59961-2.73633,4.76025-4.8623s1.71631-4.72559,1.6665-7.79785-.68945-5.65186-1.91846-7.73975c-1.229-2.08691-2.86719-3.65527-4.91504-4.70508s-4.3208-1.5542-6.81787-1.51367c-2.51562.04053-4.77734.61865-6.78564,1.73438-2.0083,1.11523-3.59082,2.73584-4.74658,4.86182-1.15625,2.12598-1.70947,4.7251-1.65967,7.79736.04932,3.05469.68652,5.62549,1.91113,7.71289,1.22412,2.0874,2.8584,3.66064,4.90186,4.71924ZM244.2666,162.67236c.41748-1.14355,1.0459-2.0166,1.88525-2.61865s1.87891-.91357,3.11865-.93359,2.28906.25732,3.14746.83203,1.51465,1.42676,1.96875,2.55615.69482,2.52051.72168,4.17334c.02686,1.65332-.16846,3.05127-.58594,4.19482s-1.04541,2.0166-1.88477,2.61865-1.87891.91309-3.11865.93311-2.28906-.25684-3.14746-.83154-1.51514-1.42676-1.96924-2.55615-.69434-2.52051-.72119-4.17383c-.02686-1.65283.16846-3.05078.58545-4.19434Z"/>
    <polygon points="275.21436 173.81201 285.3208 177.41113 287.34619 171.72314 277.23975 168.12402 278.83154 163.65527 290.05518 167.65186 292.08057 161.96387 273.79785 155.45312 264.53809 181.45508 271.59717 183.96924 275.21436 173.81201"/>
    <polygon points="296.71387 184.76514 305.28857 191.2124 308.91699 186.38672 300.34277 179.93945 303.19385 176.14795 312.71582 183.30762 316.34473 178.48193 300.8335 166.81836 284.24512 188.87939 290.23438 193.38281 296.71387 184.76514"/>
    <polygon points="312.33691 217.86182 317.25977 214.36621 310.11279 204.30029 313.98096 201.55371 320.56641 210.82861 325.48926 207.33301 318.9043 198.05859 322.77246 195.31201 329.95068 205.42188 334.87354 201.92627 323.35742 185.70654 300.85156 201.68604 312.33691 217.86182"/>
    <polygon points="315.73096 227.13721 329.70703 223.26758 329.75 223.42334 318.43555 236.90479 320.10449 242.93115 346.70508 235.56592 344.70557 228.34424 330.78174 232.19971 330.72412 231.9917 342.02979 218.68066 340.33203 212.55029 313.73145 219.91553 315.73096 227.13721"/>
    <polygon points="343.63037 277.47607 347.11816 258.38477 319.96582 253.4248 318.61963 260.79639 329.22559 262.73389 327.29785 273.28711 333.2373 274.37207 335.16504 263.81885 339.83203 264.67139 337.69092 276.39111 343.63037 277.47607"/>
    <path d="M343.05859,293.86523c-.75049-.4248-1.54883-.50977-2.39453-.25488-.84619.25439-1.49463.78076-1.9458,1.57812-.4375.77441-.54688,1.5874-.32666,2.43994.22021.85205.70557,1.49023,1.45654,1.91455.75049.4248,1.54785.51172,2.3916.26123.84326-.25098,1.48438-.76318,1.92188-1.5376.45117-.79736.56787-1.62451.3501-2.48047-.21777-.85645-.70215-1.49658-1.45312-1.9209Z"/>
    <path d="M315.79639,291.54688c-.39697-.65771-.59619-1.36914-.59717-2.1333-.00146-.76465.21045-1.52246.63477-2.27295.42041-.74316.95947-1.31299,1.61719-1.70996.6582-.39697,1.37109-.59473,2.13965-.59375.76807.00098,1.52393.21143,2.26709.63135l14.82861,8.38525,3.68848-6.52246-15.3916-8.70361c-1.83008-1.03516-3.65625-1.49756-5.47852-1.38721-1.82227.10986-3.53516.73877-5.13867,1.88623-1.60352,1.14697-2.99121,2.75732-4.16309,4.82959-1.16309,2.05713-1.82324,4.06836-1.97998,6.03369s.18555,3.76123,1.02588,5.38721c.83984,1.62598,2.17529,2.95654,4.00537,3.9917l15.3916,8.70361,3.68848-6.52295-14.82861-8.38525c-.74268-.41992-1.31299-.95898-1.70947-1.61719Z"/>
    <path d="M338.83984,301.32617c-.75098-.42432-1.54932-.50977-2.39502-.25488-.84619.25439-1.49463.78076-1.94531,1.57861-.43799.77393-.54688,1.5874-.32715,2.43945.22021.85205.70557,1.49023,1.45654,1.91504.75049.42432,1.54785.51123,2.3916.26074s1.48438-.76318,1.92236-1.53711c.45068-.79785.56738-1.625.34961-2.48096s-.70215-1.49609-1.45264-1.9209Z"/>
    <path d="M297.23779,300.99414l5.86169,6.97437-1.98535,1.66858-9.57166-3.85632-6.23145,5.2373,10.92535,4.27704c-.65137,1.44464-.90015,2.91376-.71149,4.409.20215,1.60205.93945,3.16016,2.21094,4.67334,1.26025,1.49951,2.66846,2.51074,4.22363,3.03467s3.16064.57715,4.81641.15918c1.65625-.41748,3.26807-1.28516,4.83643-2.60303l9.12061-7.66553-17.75879-21.12988-5.73633,4.82129ZM309.12402,319.24268c-.67383.56641-1.32666.95898-1.95752,1.17871-.63135.21973-1.23633.24707-1.81543.08203-.57861-.16504-1.12256-.55029-1.63086-1.15527-.50293-.59863-.78174-1.19189-.83594-1.77979-.0542-.58838.08691-1.16797.42334-1.73779.33643-.5708.8418-1.13867,1.51562-1.70557l2.02222-1.69946,4.30103,5.11743-2.02246,1.69971Z"/>
    <path d="M270.0575,322.13458l-8.90314,1.89087-2.65778-4.83649-7.90967,1.68018,14.646,25.10645,10.01904-2.12793,3.17773-28.89209-7.90967,1.68018-.46252,5.49884ZM268.55811,337.49854l-4.58319-8.34033,5.59174-1.18756-.79761,9.48297-.21094.04492Z"/>
    <polygon points="240.30518 333.49414 240.14551 333.46729 232.72705 317.50732 226.56104 316.46533 221.96338 343.68115 229.35205 344.9292 231.75879 330.68359 231.97119 330.71973 239.23926 346.59961 245.51172 347.65918 250.10938 320.44336 242.7207 319.19531 240.30518 333.49414"/>
    <polygon points="217.71094 311.5083 212.44287 320.91553 203.08301 315.67383 200.13281 320.94141 209.49268 326.18359 207.1748 330.32275 196.77979 324.50146 193.82959 329.76904 210.7627 339.25195 224.24902 315.16992 217.71094 311.5083"/>
    <path d="M201.03809,299.33887l-6.72388,6.14783-1.75-1.91388,3.45386-9.72418-5.49316-6.00732-3.81702,11.09412c-1.47076-.59058-2.94885-.77783-4.43494-.52673-1.59229.26904-3.11816,1.07031-4.57715,2.4043-1.44531,1.32178-2.39746,2.77051-2.85596,4.34619-.45801,1.57568-.44434,3.18213.04199,4.81934.48633,1.63672,1.4209,3.21143,2.80322,4.72314l8.03955,8.79248,20.36963-18.625-5.05615-5.53027ZM185.08398,313.92627l-1.78223-1.94922c-.59424-.6499-1.01416-1.28564-1.25977-1.90723s-.29834-1.22461-.15771-1.81006c.14062-.58496.50293-1.14453,1.08643-1.67773.57666-.52783,1.1582-.83057,1.74365-.90967.58545-.07861,1.16992.03809,1.75391.35059.58398.31201,1.17285.79346,1.7666,1.44287l1.78259,1.94958-4.93347,4.51086Z"/>
    <path d="M187.36719,280.625l-5.50366.40564-3.26379-8.49652,4.35974-3.38324-2.89941-7.54834-22.49854,18.40234,3.67285,9.56152,29.03271-1.39307-2.8999-7.54834ZM166.45459,281.95898l7.51837-5.83441,2.05005,5.33655-9.49078.69952-.07764-.20166Z"/>
    <path d="M166.61621,262.6543c2.91064.04688,5.43066-.48047,7.56006-1.58301,2.12988-1.10205,3.78174-2.65869,4.95557-4.6709,1.17383-2.01172,1.78223-4.36035,1.82568-7.04688.03906-2.40723-.3999-4.55078-1.31738-6.43066-.91748-1.87939-2.25928-3.36572-4.02539-4.45947-1.76611-1.09326-3.90674-1.66064-6.42236-1.70117l-3.82715-.06201-.19824,12.23584,5.33643.08643.08099-5.005c.76843.03229,1.44177.22552,2.01227.59094.60498.38721,1.06738.96289,1.38721,1.72754.32031.76465.47119,1.71729.45264,2.85791-.021,1.29395-.34375,2.37158-.96924,3.23291-.62451.86133-1.51562,1.50293-2.67285,1.92432-1.15723.42188-2.54395.61963-4.16113.59326-1.59912-.02588-2.96094-.2793-4.08545-.76025s-1.98047-1.16895-2.56787-2.06348-.87109-1.9707-.85059-3.22852c.00928-.58398.08301-1.11963.22119-1.60742.13818-.4873.33838-.91553.60059-1.28418s.57715-.67578.94482-.92139c.36816-.24561.79102-.42285,1.26904-.53223l.12256-7.57324c-1.38525.12158-2.66357.50488-3.83301,1.15088-1.16992.64648-2.18799,1.50342-3.0542,2.57227-.8667,1.06885-1.54248,2.30273-2.02783,3.70068-.48535,1.39893-.7417,2.91553-.76807,4.55029-.03027,1.85986.25391,3.60791.85156,5.24365.59814,1.63623,1.49561,3.08398,2.69287,4.34375,1.19727,1.25928,2.6709,2.25146,4.41992,2.97607,1.75.7251,3.76562,1.10596,6.04736,1.14307Z"/>
    <polygon points="188.43604 216.39746 182.78418 214.27344 178.44141 225.82959 174.00098 224.16064 178.00195 213.51318 172.3501 211.38916 168.34863 222.03662 163.9082 220.36816 168.27002 208.76172 162.61816 206.6377 155.62012 225.2583 181.45752 234.96826 188.43604 216.39746"/>
    <polygon points="194.24121 208.39014 183.20264 198.98584 183.30762 198.8623 200.81396 200.67529 204.86963 195.91553 183.85938 178.01514 178.99951 183.71924 189.99707 193.08887 189.85742 193.25293 172.49707 191.35205 168.37158 196.19385 189.38184 214.09424 194.24121 208.39014"/>
    <rect x="205.62872" y="171.61065" width="18.97596" height="5.60634" transform="translate(-53.33234 106.36612) rotate(-24.81069)"/>
  </g>
</svg>