<?xml version="1.0" encoding="UTF-8"?>
<svg id="Ebene_1" xmlns="http://www.w3.org/2000/svg" version="1.1" viewBox="0 0 500 500">
  <!-- Generator: Adobe Illustrator 30.0.0, SVG Export Plug-In . SVG Version: 2.1.1 Build 123)  -->
  <path d="M250.00372,375c-13.82396,0-26.97794-2.10672-39.46937-6.30527-12.49888-4.19855-23.95557-10.12417-34.37007-17.76941-10.4145-7.64524-19.44436-16.6751-27.0896-27.0896-7.64524-10.4145-13.57085-21.87118-17.76941-34.37007-4.206-12.49144-6.30527-25.65286-6.30527-39.46937s2.09928-26.97049,6.30527-39.46937c4.19855-12.49144,10.12417-23.94813,17.76941-34.36262,7.64524-10.4145,16.6751-19.45181,27.0896-27.09704,10.4145-7.63779,21.87118-13.56341,34.37007-17.76196,12.49144-4.206,25.64542-6.30527,39.46937-6.30527,13.80907,0,26.97049,2.09928,39.46193,6.30527,12.49888,4.19855,23.95557,10.12417,34.37007,17.76196,10.4145,7.64524,19.44436,16.68255,27.0896,27.09704,7.64524,10.4145,13.57085,21.87118,17.76941,34.36262,4.206,12.49888,6.30527,25.65286,6.30527,39.46937s-2.09928,26.97794-6.30527,39.46937c-4.19855,12.49888-10.12417,23.95557-17.76941,34.37007-7.64524,10.4145-16.6751,19.44436-27.0896,27.0896s-21.87118,13.57085-34.37007,17.76941c-12.49144,4.19855-25.65286,6.30527-39.46193,6.30527ZM250.00372,354.20823c11.51624,0,22.48906-1.75684,32.90355-5.26308,10.4145-3.50624,19.96546-8.44922,28.65289-14.81404,8.67999-6.36483,16.20612-13.89096,22.57094-22.57839,6.37227-8.67999,11.3078-18.23095,14.81404-28.64545,3.50624-10.42194,5.26308-21.38731,5.26308-32.911,0-11.51624-1.75684-22.48906-5.26308-32.90355-3.50624-10.4145-8.44177-19.96546-14.81404-28.65289-6.36483-8.67999-13.89096-16.20612-22.57094-22.57839-8.68743-6.36483-18.23839-11.30036-28.65289-14.8066-10.4145-3.51368-21.38731-5.26308-32.90355-5.26308-11.52369,0-22.4965,1.7494-32.911,5.26308-10.4145,3.50624-19.96546,8.44177-28.65289,14.8066-8.67999,6.37227-16.20612,13.8984-22.57094,22.57839-6.37227,8.68743-11.3078,18.23839-14.81404,28.65289-3.50624,10.4145-5.26308,21.38731-5.26308,32.90355,0,11.52369,1.75684,22.48906,5.26308,32.911,3.50624,10.4145,8.44177,19.96546,14.81404,28.64545,6.36483,8.68743,13.89096,16.21356,22.57094,22.57839,8.68743,6.36483,18.23839,11.3078,28.65289,14.81404,10.4145,3.50624,21.38731,5.26308,32.911,5.26308ZM192.17685,217.87006v-29.09954h115.64631v29.09954h-40.02025v103.9514h-35.60581v-103.9514h-40.02025Z"/>
  <g>
    <path d="M233.91895,92.66943c4.55469,2.35986,9.63672,3.49463,15.24414,3.40381,5.56738-.09033,10.59375-1.37842,15.08105-3.86523,4.48633-2.48682,8.02441-6.09961,10.61133-10.83936,2.58691-4.73926,3.82617-10.5332,3.71484-17.38232s-1.53711-12.6001-4.27637-17.25342c-2.73926-4.65283-6.39258-8.14893-10.95703-10.48926-4.56543-2.33936-9.63184-3.46436-15.19824-3.37402-5.6084.09082-10.65039,1.37939-15.12695,3.86572-4.47656,2.48682-8.00391,6.09961-10.58105,10.83838-2.57812,4.73975-3.81055,10.53369-3.69922,17.38281.11035,6.80908,1.5293,12.54004,4.25977,17.19287,2.72949,4.65381,6.37207,8.16016,10.92773,10.52002ZM237.21973,55.32666c.92969-2.54883,2.33105-4.49463,4.20215-5.83691s4.18848-2.03613,6.95215-2.08105,5.10254.57373,7.01562,1.85449c1.91406,1.28125,3.37695,3.18066,4.38965,5.69775,1.0127,2.51807,1.54883,5.61914,1.6084,9.30371.05957,3.68506-.37598,6.80225-1.30566,9.35107-.93066,2.54932-2.33105,4.49512-4.20215,5.8374s-4.18945,2.03564-6.95312,2.08057c-2.7627.04492-5.10156-.57324-7.01562-1.85449-1.91406-1.28027-3.37695-3.17969-4.38965-5.69775-1.0127-2.51758-1.54785-5.61865-1.60742-9.30371-.05957-3.68457.375-6.80127,1.30566-9.35107Z"/>
    <polygon points="305.49219 79.92432 328.05469 87.85205 332.5166 75.15332 309.9541 67.22607 313.45898 57.24854 338.5166 66.05225 342.97754 53.354 302.16113 39.0127 281.76465 97.06299 297.52441 102.60059 305.49219 79.92432"/>
    <polygon points="352.84766 103.66211 372.08789 117.86621 380.08203 107.0376 360.8418 92.83398 367.12305 84.32568 388.48926 100.1001 396.4834 89.27148 361.67871 63.57617 325.13379 113.07715 338.57227 122.99854 352.84766 103.66211"/>
    <polygon points="388.0166 176.56055 398.88965 168.62744 382.66895 146.396 391.21289 140.1626 406.1582 160.64697 417.03125 152.71338 402.08594 132.22949 410.62891 125.99658 426.91992 148.32471 437.79297 140.3916 411.65625 104.56885 361.95117 140.83496 388.0166 176.56055"/>
    <polygon points="395.63477 196.53369 426.63574 187.37061 426.7373 187.71631 402.03809 218.2002 405.98926 231.56836 464.99512 214.12793 460.26074 198.10889 429.375 207.23779 429.23828 206.77686 453.9248 176.67334 449.90527 163.07422 390.89941 180.51465 395.63477 196.53369"/>
    <polygon points="459.74609 307.62695 466.78027 264.93994 406.07031 254.93604 403.35449 271.41797 427.06934 275.32568 423.18066 298.92188 436.46094 301.11035 440.34961 277.51416 450.78418 279.2334 446.46582 305.43848 459.74609 307.62695"/>
    <path d="M459.52441,343.25781c-1.69434-.90967-3.47754-1.06055-5.35059-.45215-1.87305.60791-3.29199,1.8125-4.25879,3.6123-.93848,1.74658-1.1416,3.56396-.61035,5.45264.53223,1.88867,1.64453,3.2876,3.33887,4.19727,1.69336.91016,3.47461,1.06494,5.34277.46582,1.86816-.59961,3.27148-1.77246,4.20898-3.51953.9668-1.7998,1.18652-3.64844.66016-5.54541-.52734-1.89795-1.6377-3.30078-3.33105-4.21094Z"/>
    <path d="M398.65234,339.41309c-.91699-1.44727-1.39453-3.02295-1.43457-4.72656-.04004-1.7041.39551-3.40234,1.30469-5.09619.90039-1.67676,2.07422-2.97314,3.52148-3.88916,1.44727-.91699,3.02734-1.39258,4.73926-1.42725,1.71289-.03516,3.40723.39746,5.08398,1.29785l33.4541,17.96924,7.9043-14.71533-34.72461-18.65186c-4.12891-2.21777-8.22168-3.16016-12.27734-2.82617-4.05566.3335-7.84277,1.81787-11.36035,4.45264-3.51855,2.63428-6.5332,6.29004-9.04492,10.96582-2.49219,4.64062-3.86621,9.15479-4.11914,13.54297-.25488,4.3877.59473,8.37354,2.5459,11.95703,1.95215,3.58301,4.99219,6.48389,9.12109,8.70166l34.72461,18.65186,7.9043-14.71582-33.4541-17.96973c-1.67676-.90039-2.97266-2.07422-3.88867-3.521Z"/>
    <path d="M450.48242,360.09131c-1.69336-.91016-3.47754-1.06104-5.34961-.45264-1.87305.6084-3.29297,1.8125-4.25977,3.6123-.9375,1.74658-1.1416,3.56445-.60938,5.45264.53125,1.88867,1.64453,3.2876,3.33789,4.19775,1.69434.90967,3.47461,1.06494,5.34277.46533s3.27148-1.77246,4.20996-3.51953c.9668-1.7998,1.18652-3.64844.65918-5.54541-.52637-1.89746-1.63672-3.30078-3.33105-4.21045Z"/>
    <path d="M358.16797,360.94824l13.45703,15.21136-4.33002,3.83069-21.54791-8.05328-13.5918,12.02393,24.56537,8.90485c-1.37244,3.25885-1.81781,6.55005-1.31244,9.87494.54102,3.55859,2.27148,6.98877,5.19141,10.28906,2.89355,3.27002,6.08789,5.44531,9.58301,6.52441,3.49609,1.07959,7.07617,1.10693,10.74316.08301,3.66699-1.02441,7.21094-3.04932,10.63086-6.0752l19.8916-17.59766-40.76953-46.08398-12.51074,11.06787ZM385.68848,400.94336c-1.4707,1.30029-2.90234,2.21289-4.29688,2.73828-1.39453.52441-2.74121.61963-4.04004.28467s-2.5332-1.1626-3.7002-2.48242c-1.15527-1.30518-1.80957-2.61182-1.96289-3.91943-.1543-1.30762.12695-2.60693.84473-3.89648.71777-1.29004,1.81152-2.58496,3.28125-3.88574l4.41028-3.90186,9.8739,11.16113-4.41016,3.90186Z"/>
    <path d="M298.81256,409.60797l-19.73108,4.72534-6.20062-10.62531-17.53027,4.19824,34.08105,55.10742,22.20508-5.31787,5.4209-64.56738-17.53027,4.19824-.71478,12.28131ZM296.35449,443.93213l-10.69287-18.32312,12.39233-2.96771-1.23267,21.17902-.4668.11182Z"/>
    <polygon points="234.02246 436.68457 233.66602 436.63525 216.05859 401.57373 202.25 399.66895 193.8418 460.62109 210.38965 462.90381 214.79004 430.99902 215.2666 431.06494 232.53223 465.95801 246.58008 467.89551 254.9873 406.94336 238.43945 404.66113 234.02246 436.68457"/>
    <polygon points="182.77539 389.51123 171.76172 410.87402 150.50586 399.91553 144.33789 411.87842 165.59375 422.8374 160.74805 432.23682 137.1416 420.06689 130.97461 432.02979 169.42773 451.85449 197.62305 397.16553 182.77539 389.51123"/>
    <path d="M145.18555,364.12402l-14.45142,14.26965-4.06165-4.11346,6.86072-21.95697-12.75-12.9126-.30487,1.01068-7.07404-16.29681-12.21838,1.42792-8.07874-18.61127,9.38794-7.95093-7.17773-16.53516-48.35449,43.12891,9.09082,20.94531,64.34766-5.85272-7.16394,23.74988c-3.32953-1.19153-6.64062-1.45654-9.93176-.76923-3.52441.73486-6.85449,2.65088-9.99023,5.74707-3.10645,3.06787-5.10352,6.37646-5.98926,9.92578-.88672,3.54932-.71777,7.12598.50488,10.73145,1.22363,3.60498,3.44043,7.03271,6.64844,10.28223l18.66113,18.89795,43.78223-43.23145-11.7373-11.88623ZM66.95605,329.08936l16.1886-13.71063,5.07397,11.68909-21.07117,2.46246-.19141-.44092ZM110.89551,397.98291l-4.1377-4.18994c-1.37891-1.39648-2.36816-2.77686-2.96875-4.14014-.60059-1.36377-.76953-2.70312-.50586-4.01855.2627-1.31543,1.02246-2.59277,2.27637-3.83057,1.23926-1.22461,2.50781-1.94971,3.80566-2.1748,1.29688-.22559,2.60938-.01562,3.93652.63037,1.32812.64551,2.68066,1.66699,4.05957,3.06348l4.13739,4.19031-10.60321,10.46985Z"/>
    <path d="M66.02539,287.1416c6.4834-.28223,12.02148-1.7915,16.61328-4.52783,4.5918-2.73584,8.06055-6.42041,10.4043-11.05371,2.34473-4.63232,3.38574-9.94043,3.125-15.92383-.2334-5.3623-1.49609-10.07373-3.78809-14.13428-2.29199-4.06006-5.47559-7.18945-9.55078-9.38721-4.0752-2.19824-8.91406-3.17529-14.5166-2.93115l-8.52441.37109,1.18652,27.25391,11.88672-.51807-.4859-11.14771c1.71454-.02997,3.2373.30933,4.55621,1.04663,1.39746.78125,2.50293,2.00146,3.31738,3.65967.81348,1.65918,1.27637,3.75879,1.38672,6.2998.12598,2.88135-.44922,5.32275-1.72559,7.32275s-3.17383,3.54639-5.69238,4.63818c-2.51855,1.09229-5.5791,1.7168-9.18066,1.87354-3.56152.15527-6.62598-.22705-9.19141-1.14844-2.56641-.92041-4.5625-2.33691-5.98926-4.24951s-2.20117-4.26953-2.32324-7.07129c-.05664-1.30029.03711-2.50244.2793-3.60547.24316-1.10303.63086-2.08252,1.16504-2.93799.53418-.85498,1.19434-1.58057,1.98047-2.17627.78613-.59521,1.70312-1.04639,2.75293-1.35254l-.73535-16.86865c-3.06738.45459-5.85938,1.47852-8.37598,3.07129-2.51758,1.59375-4.66895,3.63672-6.4541,6.13037-1.78613,2.49365-3.12598,5.32861-4.02051,8.50488-.89355,3.17676-1.26172,6.58594-1.10352,10.22754.18066,4.14209,1.0459,7.99414,2.59375,11.55469,1.54883,3.56152,3.73828,6.66357,6.57031,9.30713,2.83203,2.64307,6.24219,4.65479,10.23145,6.03467,3.99023,1.37988,8.52637,1.95898,13.6084,1.73779Z"/>
    <polygon points="109.01758 182.37646 96.18555 178.31445 87.87988 204.55127 77.79785 201.35938 85.4502 177.18506 72.61816 173.12305 64.96582 197.29736 54.88379 194.10596 63.22559 167.75439 50.39355 163.69238 37.01074 205.96875 95.6709 224.53857 109.01758 182.37646"/>
    <polygon points="120.63477 164.43115 94.88477 144.88721 95.10254 144.6001 134.29395 146.43506 142.72168 135.33105 93.70996 98.13184 83.61133 111.4375 109.26562 130.90869 108.97461 131.29199 70.09766 129.24219 61.52441 140.5376 110.53516 177.7373 120.63477 164.43115"/>
    <rect x="141.67903" y="79.9288" width="42.30113" height="12.49787" transform="translate(-21.39788 86.73969) rotate(-28.06485)"/>
  </g>
</svg>